<svg width="60" height="60" viewBox="0 0 60 60" fill="none" xmlns="http://www.w3.org/2000/svg">
<path d="M30 60C46.5685 60 60 46.5685 60 30C60 13.4315 46.5685 0 30 0C13.4315 0 0 13.4315 0 30C0 46.5685 13.4315 60 30 60Z" fill="#ACB7B8"/>
<path d="M30 26.605C35.4495 26.605 39.8672 22.1873 39.8672 16.7378C39.8672 11.2883 35.4495 6.87061 30 6.87061C24.5505 6.87061 20.1328 11.2883 20.1328 16.7378C20.1328 22.1873 24.5505 26.605 30 26.605Z" fill="#F6F7F8"/>
<path d="M30 53.1281C26.3748 53.128 22.847 51.9545 19.9441 49.783C17.0411 47.6116 14.919 44.5588 13.895 41.0812C12.1278 35.0801 16.6266 29.0625 22.8832 29.0625H37.1168C43.3735 29.0625 47.8723 35.0777 46.1051 41.0789C45.0815 44.5569 42.9596 47.6102 40.0566 49.7821C37.1536 51.954 33.6256 53.1278 30 53.1281Z" fill="#EAEDEE"/>
</svg>
